{"title":"Terminus.2015.BRRip.720p.x264.AAC-PRiSTiNE [P2PDL]","uid":13893448,"size":641397144,"categoryP":"video","categoryS":"movies","magnet":"?xt=urn:btih:e4f3bfe456c7719eadb354ac0c5429a634a04d81&amp;dn=Terminus.2015.BRRip.720p.x264.AAC-PRiSTiNE+%5BP2PDL%5D&amp;tr=udp%3A%2F%2Ftracker.leechers-paradise.org%3A6969&amp;tr=udp%3A%2F%2Fzer0day.ch%3A1337&amp;tr=udp%3A%2F%2Fopen.demonii.com%3A1337&amp;tr=udp%3A%2F%2Ftracker.coppersurfer.tk%3A6969&amp;tr=udp%3A%2F%2Fexodus.desync.com%3A6969","seeders":0,"leechers":2,"uploader":"VYTOP2PDL","files":7,"time":1458223502,"description":"____    ____ ____    ____ .___________.  ______   \r\n     /   /      /   / |           | /  __    \r\n    /   /      /   /  `---|  |----`|  |  |  | \r\n        /     _    _/       |  |     |  |  |  | \r\n       /        |  |         |  |     |  `--'  | \r\n    __/         |__|         |__|      ______/  \r\n                                                  \r\nPresenting Small Encodes with quality for years!\r\n                                                                                                   \r\n                                                                                                   \r\n\r\n\r\nTerminus.2015.BRRip.720p.x264.AAC-PRiSTiNE\r\n\r\n\r\nGenre: Sci-Fi  \nhttp://www.imdb.com/title/tt3399896/\r\n\r\n\r\nFormat                                   : MPEG-4\r\nFile size                                : 600 MiB\r\nDuration                                 : 1h 33mn\r\nOverall bit rate                         : 893 Kbps\r\n\r\nVideo\r\nFormat                                   : AVC\r\nBit rate                                 : 812 Kbps\r\nWidth                                    : 1 280 pixels\r\nHeight                                   : 528 pixels\r\nDisplay aspect ratio                     : 2.40:1\r\nFrame rate mode                          : Constant\r\nFrame rate                               : 23.976 fps\r\nBit depth                                : 8 bits\r\nStream size                              : 544 MiB (91%)\r\nWriting library                          : x264\r\n\r\nAudio\r\nFormat                                   : AAC\r\nBit rate mode                            : Variable\r\nBit rate                                 : 79.8 Kbps\r\nChannel(s)                               : 2 channels\r\nChannel positions                        : Front: L R\r\nSampling rate                            : 48.0 KHz\r\nStream size                              : 53.6 MiB (9%)\r\nLanguage                                 : English\r\n\r\nSubtitle                                 : Yes (English)\r\n\r\nScreen Shot: (Click to view)\r\n \nhttp://ititli.com/XkW \nhttp://ititli.com/Xkg \nhttp://ititli.com/Xkn \nhttp://ititli.com/Xkw \nhttp://ititli.com/Xk2 \nhttp://ititli.com/Xk6 \nhttp://ititli.com/Xk8 \nhttp://ititli.com/Xke \nhttp://ititli.com/Xkj\r\n\r\n----------------------------------------------------------------------------------------------------\r\n\r\n\r\nEncoder Notes: Looking For Early Access To Anything You Can Provide WEBDL, DVDScr, DVDR, BluRay,\r\nDirect Audio, Music Releases and Seedboxes. If You Got anything to offer please contact us.\r\n\r\nSupport us by donating BC - 1FgwdzPsd1y25Gea8wP1qni35uGCtmkRCD\r\n\r\nFind us and join us!","torrent":{"xt":"urn:btih:e4f3bfe456c7719eadb354ac0c5429a634a04d81","amp;dn":"Terminus.2015.BRRip.720p.x264.AAC-PRiSTiNE+%5BP2PDL%5D","amp;tr":["udp%3A%2F%2Ftracker.leechers-paradise.org%3A6969","udp%3A%2F%2Fzer0day.ch%3A1337","udp%3A%2F%2Fopen.demonii.com%3A1337","udp%3A%2F%2Ftracker.coppersurfer.tk%3A6969","udp%3A%2F%2Fexodus.desync.com%3A6969"],"infoHash":"e4f3bfe456c7719eadb354ac0c5429a634a04d81","infoHashBuffer":{"type":"Buffer","data":[228,243,191,228,86,199,113,158,173,179,84,172,12,84,41,166,52,160,77,129]},"announce":[],"urlList":[]}}